<?xml version="1.0" encoding="UTF-8"?>
<svg id="Warstwa_1" data-name="Warstwa 1" xmlns="http://www.w3.org/2000/svg" viewBox="0 0 524.54 106.79">
  <defs>
    <style>
      .cls-1 {
        fill: #1d1d1b;
      }
    </style>
  </defs>
  <g>
    <polygon points="40.54 61.45 52.9 61.45 27.62 27.02 49 1.04 37.33 1.04 16.59 27.13 40.54 61.45"/>
    <polygon points="9.22 1.04 0 1.04 0 61.45 9.22 61.45 9.22 40.55 9.22 30.23 9.22 1.04"/>
  </g>
  <path d="M100.87,0c-17.26,0-31.25,13.99-31.25,31.25s13.99,31.25,31.25,31.25,31.25-13.99,31.25-31.25S118.13,0,100.87,0ZM100.87,53.48c-12.28,0-22.23-9.96-22.23-22.23s9.95-22.23,22.23-22.23,22.23,9.95,22.23,22.23-9.95,22.23-22.23,22.23Z"/>
  <path d="M169.83,1.04v52.55h33.25v7.87h-42.39V1.04h9.14Z"/>
  <g>
    <polygon points="281.95 61.45 260.29 1.04 249.12 1.04 271.97 61.45 281.95 61.45"/>
    <polygon points="235.74 61.45 246.36 32.42 237.1 32.42 225.92 61.45 235.74 61.45"/>
  </g>
  <g>
    <polygon points="310.72 1.04 310.72 8.91 330.95 8.91 330.95 8.91 340.09 8.91 340.09 8.91 360.22 8.91 360.22 1.04 310.72 1.04"/>
    <polygon points="330.95 61.45 340.09 61.45 340.09 13.44 330.95 19.34 330.95 61.45"/>
  </g>
  <path d="M414.52,0c-17.26,0-31.25,13.99-31.25,31.25s13.99,31.25,31.25,31.25,31.25-13.99,31.25-31.25S431.77,0,414.52,0ZM414.52,53.48c-12.28,0-22.23-9.96-22.23-22.23s9.95-22.23,22.23-22.23,22.23,9.95,22.23,22.23-9.95,22.23-22.23,22.23Z"/>
  <path d="M524.54,19.4c0-12.27-7.19-18.36-21.58-18.36h-25.05v7.9h9.22v-.03h15.06c4.48,0,7.78.85,9.9,2.54,2.12,1.52,3.21,4.23,3.21,7.95s-1.1,6.43-3.13,8.12c-2.12,1.69-5.42,2.54-9.98,2.54l-15.15-.05V13.44l-9.14,5.9v42.12h9.22v-23.52h14.83l12.58,23.52h9.93l-13.08-24.47c8.73-2.14,13.14-8,13.14-17.59Z"/>
  <g>
    <path class="cls-1" d="M117.19,92.6c.92-.19,2.25-.29,3.51-.29,1.95,0,3.21.36,4.09,1.16.71.63,1.11,1.6,1.11,2.69,0,1.87-1.18,3.11-2.67,3.61v.06c1.09.38,1.74,1.38,2.08,2.86.46,1.97.8,3.34,1.09,3.88h-1.89c-.23-.4-.55-1.62-.94-3.38-.42-1.95-1.18-2.69-2.83-2.75h-1.72v6.13h-1.83v-13.96ZM119.02,99.04h1.87c1.95,0,3.19-1.07,3.19-2.69,0-1.83-1.32-2.62-3.25-2.65-.88,0-1.51.08-1.81.17v5.17Z"/>
    <path class="cls-1" d="M147.12,92.41v5.92h6.84v-5.92h1.85v14.15h-1.85v-6.63h-6.84v6.63h-1.83v-14.15h1.83Z"/>
    <path class="cls-1" d="M177.61,92.41v14.15h-1.83v-14.15h1.83Z"/>
    <path class="cls-1" d="M197.6,106.56v-14.15h1.99l4.54,7.16c1.05,1.66,1.87,3.15,2.54,4.6l.04-.02c-.17-1.89-.21-3.61-.21-5.82v-5.92h1.72v14.15h-1.85l-4.49-7.18c-.99-1.57-1.93-3.19-2.65-4.72l-.06.02c.1,1.79.15,3.49.15,5.84v6.05h-1.72Z"/>
    <path class="cls-1" d="M240.31,99.34c0,4.87-2.96,7.45-6.57,7.45s-6.36-2.9-6.36-7.18,2.79-7.43,6.57-7.43,6.36,2.96,6.36,7.16ZM229.33,99.57c0,3.02,1.64,5.73,4.51,5.73s4.54-2.67,4.54-5.88c0-2.81-1.47-5.75-4.51-5.75s-4.54,2.79-4.54,5.9Z"/>
    <path class="cls-1" d="M259.49,92.58c.88-.15,2.04-.27,3.51-.27,1.81,0,3.13.42,3.97,1.18.78.67,1.24,1.7,1.24,2.96s-.38,2.29-1.09,3.02c-.97,1.03-2.54,1.55-4.33,1.55-.55,0-1.05-.02-1.47-.13v5.67h-1.83v-13.98ZM261.31,99.4c.4.1.9.15,1.51.15,2.21,0,3.55-1.07,3.55-3.02s-1.32-2.77-3.34-2.77c-.8,0-1.41.06-1.72.15v5.5Z"/>
    <path class="cls-1" d="M287.46,92.41h1.83v12.62h6.05v1.53h-7.87v-14.15Z"/>
    <path class="cls-1" d="M316.46,102.11l-1.47,4.45h-1.89l4.81-14.15h2.2l4.83,14.15h-1.95l-1.51-4.45h-5.02ZM321.1,100.68l-1.39-4.07c-.32-.92-.53-1.76-.74-2.58h-.04c-.21.84-.44,1.7-.71,2.56l-1.39,4.09h4.26Z"/>
    <path class="cls-1" d="M343.57,104.34c.82.5,2.02.92,3.28.92,1.87,0,2.96-.99,2.96-2.41,0-1.32-.76-2.08-2.67-2.81-2.31-.82-3.74-2.02-3.74-4.01,0-2.21,1.83-3.84,4.58-3.84,1.45,0,2.5.34,3.13.69l-.5,1.49c-.46-.25-1.41-.67-2.69-.67-1.93,0-2.67,1.15-2.67,2.12,0,1.32.86,1.97,2.81,2.73,2.39.92,3.61,2.08,3.61,4.16,0,2.18-1.62,4.07-4.96,4.07-1.36,0-2.86-.4-3.61-.9l.46-1.53Z"/>
    <path class="cls-1" d="M373.66,93.96h-4.3v-1.55h10.48v1.55h-4.33v12.6h-1.85v-12.6Z"/>
    <path class="cls-1" d="M401.95,106.56v-6l-4.47-8.15h2.08l1.99,3.91c.55,1.07.97,1.93,1.41,2.92h.04c.4-.92.88-1.85,1.43-2.92l2.04-3.91h2.08l-4.75,8.12v6.03h-1.85Z"/>
  </g>
</svg>